<?xml version="1.0"?>
<svg xmlns="http://www.w3.org/2000/svg" viewBox="0 0 64 64">
    <path d="M 12.332031 4 C 11.258031 4 10.192984 4.355 9.3339844 5 L 3.9980469 9 C 2.7460469 9.939 2 11.435 2 13 L 2 55 C 2 56.654 3.346 58 5 58 L 59 58 C 60.654 58 62 56.654 62 55 L 62 13 C 62 11.435 61.253 9.939 60 9 L 54.666016 5 C 53.807016 4.355 52.741969 4 51.667969 4 L 12.332031 4 z M 12.332031 6 L 51.667969 6 C 52.312969 6 52.949797 6.2126094 53.466797 6.5996094 L 58.800781 10.599609 C 59.552781 11.162609 60 12.061 60 13 L 60 55 C 60 55.551 59.552 56 59 56 L 5 56 C 4.448 56 4 55.551 4 55 L 4 13 C 4 12.674 4.0718281 12.303 4.1738281 12 L 47 12 C 47.553 12 48 11.608641 48 11.056641 C 48 10.504641 47.553 10.056641 47 10.056641 L 5.9238281 10.056641 L 10.533203 6.5996094 C 11.050203 6.2126094 11.687031 6 12.332031 6 z M 51 10 C 50.447 10 50 10.448 50 11 C 50 11.552 50.447 12 51 12 L 55 12 C 55.553 12 56 11.552 56 11 C 56 10.448 55.553 10 55 10 L 51 10 z M 21 16 C 19.346 16 18 17.346 18 19 L 18 49 C 18 50.654 19.346 52 21 52 L 29 52 C 29.771 52 30.468 51.699703 31 51.220703 C 31.532 51.700703 32.229 52 33 52 L 41 52 C 41.771 52 42.468 51.699703 43 51.220703 C 43.532 51.700703 44.229 52 45 52 L 53 52 C 54.654 52 56 50.654 56 49 L 56 19 C 56 17.346 54.654 16 53 16 L 45 16 C 44.229 16 43.532 16.300297 43 16.779297 C 42.468 16.299297 41.771 16 41 16 L 33 16 C 32.229 16 31.532 16.300297 31 16.779297 C 30.468 16.299297 29.771 16 29 16 L 21 16 z M 11 18 C 9.346 18 8 19.346 8 21 C 8 22.654 9.346 24 11 24 C 12.654 24 14 22.654 14 21 C 14 19.346 12.654 18 11 18 z M 21 18 L 29 18 C 29.552 18 30 18.449 30 19 L 30 49 C 30 49.551 29.552 50 29 50 L 21 50 C 20.448 50 20 49.551 20 49 L 20 19 C 20 18.449 20.448 18 21 18 z M 33 18 L 41 18 C 41.552 18 42 18.449 42 19 L 42 49 C 42 49.551 41.552 50 41 50 L 33 50 C 32.448 50 32 49.551 32 49 L 32 19 C 32 18.449 32.448 18 33 18 z M 45 18 L 53 18 C 53.552 18 54 18.449 54 19 L 54 49 C 54 49.551 53.552 50 53 50 L 45 50 C 44.448 50 44 49.551 44 49 L 44 19 C 44 18.449 44.448 18 45 18 z M 11 20 C 11.552 20 12 20.449 12 21 C 12 21.551 11.552 22 11 22 C 10.448 22 10 21.551 10 21 C 10 20.449 10.448 20 11 20 z M 25 21 A 2 2 0 0 0 23 23 A 2 2 0 0 0 25 25 A 2 2 0 0 0 27 23 A 2 2 0 0 0 25 21 z M 37 21 A 2 2 0 0 0 35 23 A 2 2 0 0 0 37 25 A 2 2 0 0 0 39 23 A 2 2 0 0 0 37 21 z M 49 21 A 2 2 0 0 0 47 23 A 2 2 0 0 0 49 25 A 2 2 0 0 0 51 23 A 2 2 0 0 0 49 21 z M 11 26 C 9.346 26 8 27.346 8 29 C 8 30.654 9.346 32 11 32 C 12.654 32 14 30.654 14 29 C 14 27.346 12.654 26 11 26 z M 11 28 C 11.552 28 12 28.449 12 29 C 12 29.551 11.552 30 11 30 C 10.448 30 10 29.551 10 29 C 10 28.449 10.448 28 11 28 z M 24 29 C 23.447 29 23 29.448 23 30 C 23 30.552 23.447 31 24 31 L 26 31 C 26.553 31 27 30.552 27 30 C 27 29.448 26.553 29 26 29 L 24 29 z M 36 29 C 35.447 29 35 29.448 35 30 C 35 30.552 35.447 31 36 31 L 38 31 C 38.553 31 39 30.552 39 30 C 39 29.448 38.553 29 38 29 L 36 29 z M 48 29 C 47.447 29 47 29.448 47 30 C 47 30.552 47.447 31 48 31 L 50 31 C 50.553 31 51 30.552 51 30 C 51 29.448 50.553 29 50 29 L 48 29 z M 24 34 C 23.447 34 23 34.448 23 35 C 23 35.552 23.447 36 24 36 L 26 36 C 26.553 36 27 35.552 27 35 C 27 34.448 26.553 34 26 34 L 24 34 z M 36 34 C 35.447 34 35 34.448 35 35 C 35 35.552 35.447 36 36 36 L 38 36 C 38.553 36 39 35.552 39 35 C 39 34.448 38.553 34 38 34 L 36 34 z M 48 34 C 47.447 34 47 34.448 47 35 C 47 35.552 47.447 36 48 36 L 50 36 C 50.553 36 51 35.552 51 35 C 51 34.448 50.553 34 50 34 L 48 34 z M 8 39 C 7.447 39 7 39.448 7 40 C 7 40.552 7.447 41 8 41 L 14 41 C 14.553 41 15 40.552 15 40 C 15 39.448 14.553 39 14 39 L 8 39 z M 24 39 C 23.447 39 23 39.448 23 40 C 23 40.552 23.447 41 24 41 L 26 41 C 26.553 41 27 40.552 27 40 C 27 39.448 26.553 39 26 39 L 24 39 z M 36 39 C 35.447 39 35 39.448 35 40 C 35 40.552 35.447 41 36 41 L 38 41 C 38.553 41 39 40.552 39 40 C 39 39.448 38.553 39 38 39 L 36 39 z M 48 39 C 47.447 39 47 39.448 47 40 C 47 40.552 47.447 41 48 41 L 50 41 C 50.553 41 51 40.552 51 40 C 51 39.448 50.553 39 50 39 L 48 39 z M 8 44 C 7.447 44 7 44.448 7 45 C 7 45.552 7.447 46 8 46 L 14 46 C 14.553 46 15 45.552 15 45 C 15 44.448 14.553 44 14 44 L 8 44 z M 24 44 C 23.447 44 23 44.448 23 45 C 23 45.552 23.447 46 24 46 L 26 46 C 26.553 46 27 45.552 27 45 C 27 44.448 26.553 44 26 44 L 24 44 z M 36 44 C 35.447 44 35 44.448 35 45 C 35 45.552 35.447 46 36 46 L 38 46 C 38.553 46 39 45.552 39 45 C 39 44.448 38.553 44 38 44 L 36 44 z M 48 44 C 47.447 44 47 44.448 47 45 C 47 45.552 47.447 46 48 46 L 50 46 C 50.553 46 51 45.552 51 45 C 51 44.448 50.553 44 50 44 L 48 44 z"/>
</svg>
